<?xml version="1.0" standalone="no"?>
<!DOCTYPE svg PUBLIC "-//W3C//DTD SVG 20010904//EN"
 "http://www.w3.org/TR/2001/REC-SVG-20010904/DTD/svg10.dtd">
<svg version="1.0" xmlns="http://www.w3.org/2000/svg"
 width="700.000000pt" height="700.000000pt" viewBox="0 0 700.000000 700.000000"
 preserveAspectRatio="xMidYMid meet">
<metadata>
Created by potrace 1.14, written by Peter Selinger 2001-2017
</metadata>
<g transform="translate(0.000000,700.000000) scale(0.100000,-0.100000)"
fill="#000000" stroke="none">
<path d="M1850 6650 c-112 -13 -140 -18 -270 -49 -132 -31 -253 -76 -395 -146
-163 -80 -191 -97 -291 -167 -145 -101 -348 -287 -422 -387 -15 -20 -35 -45
-45 -56 -46 -51 -164 -242 -222 -360 -53 -109 -115 -269 -130 -334 -2 -9 -13
-54 -25 -99 -34 -141 -49 -293 -46 -488 2 -100 6 -185 8 -190 3 -5 8 -31 12
-59 29 -238 137 -531 286 -775 126 -208 232 -336 508 -613 656 -660 2556
-2544 2581 -2559 43 -28 122 -34 174 -14 33 12 144 117 534 503 726 720 2253
2243 2293 2289 278 307 491 711 557 1054 2 14 11 59 20 100 17 87 26 420 13
520 -16 128 -22 162 -50 273 -90 364 -285 699 -565 972 -179 174 -336 286
-550 391 -375 183 -784 244 -1200 179 -355 -56 -741 -239 -1059 -499 l-68 -55
-76 63 c-202 165 -438 302 -672 389 -81 30 -257 80 -325 93 -119 21 -175 26
-330 28 -99 2 -209 0 -245 -4z"/>
</g>
</svg>
