<svg height="512pt" viewBox="0 0 512 512" width="512pt" xmlns="http://www.w3.org/2000/svg"><path d="m450 140.601562v371.398438h-450v-450h371.398438zm0 0" fill="#fdbf00"/><path d="m450 140.601562v371.398438h-450l410.699219-410.699219zm0 0" fill="#ff9100"/><path d="m512 84.902344-56 55.699218-66-18.601562-18.601562-66 55.699218-56 42.601563 42.597656zm0 0" fill="#676e74"/><path d="m512 84.902344-56 55.699218-66-18.601562 79.699219-79.402344zm0 0" fill="#474f54"/><path d="m456 140.601562-214.5 214.800782-84.902344-84.902344 214.800782-214.5zm0 0" fill="#7ed8f6"/><path d="m456 140.601562-214.5 214.800782-42.300781-42.300782 214.5-214.800781zm0 0" fill="#4895ff"/><path d="m241.5 355.402344-127.199219 42.296875 42.296875-127.199219 66.300782 18.601562zm0 0" fill="#faecd8"/><path d="m241.5 355.402344-127.199219 42.296875 108.597657-108.597657zm0 0" fill="#dabba6"/></svg>